<?xml version="1.0" encoding="UTF-8" standalone="no"?>
<!DOCTYPE svg PUBLIC "-//W3C//DTD SVG 1.1//EN" "http://www.w3.org/Graphics/SVG/1.1/DTD/svg11.dtd">
<svg width="100%" height="100%" viewBox="10 60 1370 1280" version="1.1" xmlns="http://www.w3.org/2000/svg" xmlns:xlink="http://www.w3.org/1999/xlink" xml:space="preserve" xmlns:serif="http://www.serif.com/" style="fill-rule:evenodd;clip-rule:evenodd;stroke-linejoin:round;stroke-miterlimit:2;">
    <g>
        <g id="Ebene-2" serif:id="Ebene 2" transform="matrix(-5.55556,0,0,5.55556,1456.69,17.6386)">
            <g transform="matrix(-0.18,0,0,0.18,262.204,-3.17495)">
                <path d="M692.969,1350.04C54.807,965.772 -0.959,265.578 -0.959,265.578C355.123,56.837 686.88,79.205 693.085,79.644C700.201,79.144 1031.52,57.134 1387.1,265.58C1387.1,265.58 1331.34,965.774 693.174,1350.04L693.174,1350.16L693.073,1350.1L692.969,1350.16L692.969,1350.04Z" style="fill:rgb(6,198,164);fill-rule:nonzero;"/>
            </g>
            <g transform="matrix(-0.18,0,0,0.18,262.204,-3.17495)">
                <path d="M692.969,1312.85C67.205,936.712 30.024,277.061 30.024,277.061C373.799,81.613 687.166,97.906 693.089,98.234C700.116,97.85 1012.97,81.97 1356.12,277.063C1356.12,277.063 1318.94,936.714 693.174,1312.86L693.174,1312.98L693.073,1312.92L692.969,1312.98L692.969,1312.85Z" style="fill:rgb(6,198,164);fill-rule:nonzero;"/>
            </g>
        </g>
        <g id="Ebene-3" serif:id="Ebene 3">
            <path d="M692.969,1312.86C67.205,953.378 30.024,277.974 30.024,277.974C361.623,81.471 687.129,97.917 693.09,98.237C700.262,97.857 1025.16,81.85 1356.12,277.976C1356.12,277.976 1318.94,953.38 693.174,1312.86L693.174,1312.97L693.073,1312.92L692.969,1312.98L692.969,1312.86Z" style="fill-rule:nonzero;"/>
        </g>
        <g id="Ebene-4" serif:id="Ebene 4" transform="matrix(-5.55556,0,0,5.55556,1456.69,17.6386)">
            <g transform="matrix(-0.18,0,0,0.18,262.204,-3.17495)">
                <path d="M1071.02,228.391C1071.02,228.391 1157.79,315.158 1095.81,414.319C1095.81,414.319 1108.21,414.319 1102.01,420.519C1102.01,420.519 1108.21,432.914 1040.04,445.308C1040.04,445.308 1071.02,488.691 1126.81,643.636C1126.81,643.636 1194.98,538.275 1225.97,302.764C1225.97,302.764 1163.99,265.58 1071.02,228.391ZM315.119,228.389C315.119,228.389 228.353,315.156 290.331,414.317C290.331,414.317 277.931,414.317 284.131,420.517C284.131,420.517 277.931,432.912 346.108,445.306C346.108,445.306 315.119,488.689 259.336,643.634C259.336,643.634 191.164,538.273 160.175,302.762C160.175,302.762 222.153,265.578 315.119,228.389Z" style="fill:rgb(6,198,164);fill-rule:nonzero;"/>
            </g>
            <g transform="matrix(-0.18,0,0,0.18,262.204,-3.17495)">
                <path d="M693.174,160.23C699.452,160.486 848.562,166.677 878.897,178.81C878.897,178.81 854.108,197.405 835.514,240.788C835.514,240.788 730.531,228.438 693.174,253.047L693.174,253.181L693.073,253.114L692.969,253.183L692.969,253.045C655.612,228.436 550.629,240.786 550.629,240.786C532.035,197.403 507.246,178.808 507.246,178.808C537.581,166.675 686.691,160.484 692.969,160.228L692.969,160.221L693.048,160.225L693.174,160.219L693.174,160.23Z" style="fill:rgb(6,198,164);fill-rule:nonzero;"/>
            </g>
        </g>
        <g id="Ebene-6" serif:id="Ebene 6" transform="matrix(-5.55556,0,0,5.55556,1456.69,17.6386)">
            <g transform="matrix(-0.18,0,0,0.18,262.204,-3.17495)">
                <path d="M693.072,469.894L705.364,445.311L742.553,445.311L748.747,488.694C748.747,488.694 723.958,457.705 723.958,470.1C723.958,470.1 742.553,525.878 717.758,532.078C717.758,532.078 711.586,538.25 693.071,501.291C674.557,538.248 668.385,532.076 668.385,532.076C643.591,525.876 662.185,470.098 662.185,470.098C662.185,457.703 637.396,488.692 637.396,488.692L643.591,445.309L680.779,445.309L693.072,469.894Z" style="fill:rgb(171,171,171);fill-rule:nonzero;"/>
            </g>
            <g transform="matrix(-0.18,0,0,0.18,262.204,-3.17495)">
                <path d="M798.329,575.459C798.329,575.459 798.329,587.854 785.935,587.854L725.507,610.031L711.563,612.648L705.368,612.648L711.563,600.248L730.157,575.459L754.94,544.47L779.735,544.47L792.129,563.065L798.329,575.459ZM587.814,575.457C587.814,575.457 587.814,587.852 600.208,587.852L660.636,610.029L674.581,612.646L680.775,612.646L674.581,600.246L655.986,575.457L631.203,544.468L606.408,544.468L594.014,563.063L587.814,575.457Z" style="fill:rgb(171,171,171);fill-rule:nonzero;"/>
            </g>
            <g transform="matrix(-0.18,0,0,0.18,262.204,-3.17495)">
                <path d="M748.758,665.851C748.758,665.851 705.364,687.018 705.364,699.412C705.364,699.412 699.164,730.401 761.141,736.601C761.141,736.601 835.514,736.601 835.514,823.368C835.514,823.368 862.297,780.495 861.297,684.179L748.758,665.851ZM637.385,665.849C637.385,665.849 680.779,687.016 680.779,699.41C680.779,699.41 686.979,730.399 625.002,736.599C625.002,736.599 550.629,736.599 550.629,823.366C550.629,823.366 523.846,780.493 524.846,684.177L637.385,665.849Z" style="fill:rgb(171,171,171);fill-rule:nonzero;"/>
            </g>
            <g transform="matrix(-0.18,0,0,0.18,262.204,-3.17495)">
                <path d="M693.007,1084.44C650.182,1085 631.203,1052.68 631.203,1052.68C625.003,1058.87 631.203,1065.07 631.203,1065.07C600.208,1052.68 594.014,1021.69 594.014,1021.69C587.814,1021.69 587.814,1040.28 587.814,1040.28C569.219,1015.49 581.619,978.306 581.619,978.306L587.814,990.7L594.014,1009.29L655.986,1034.09L692.968,1021.76L692.968,1021.69L693.069,1021.72L693.175,1021.69L693.175,1021.76L730.157,1034.09L792.129,1009.3L798.329,990.702L804.524,978.308C804.524,978.308 816.924,1015.5 798.329,1040.29C798.329,1040.29 798.329,1021.69 792.129,1021.69C792.129,1021.69 785.935,1052.68 754.94,1065.07C754.94,1065.07 761.14,1058.87 754.94,1052.68C754.94,1052.68 735.923,1085.07 693.007,1084.44Z" style="fill:rgb(171,171,171);fill-rule:nonzero;"/>
            </g>
        </g>
        <g id="Ebene-5" serif:id="Ebene 5" transform="matrix(-5.55556,0,0,5.55556,1456.69,17.6386)">
            <g transform="matrix(-0.18,0,0,0.18,262.204,-3.17495)">
                <path d="M885.094,488.694C885.094,488.694 872.7,501.089 872.7,513.483C872.7,513.483 866.5,532.078 835.516,532.078C835.516,532.078 748.75,519.683 885.094,488.694ZM501.049,488.692C501.049,488.692 513.443,501.087 513.443,513.481C513.443,513.481 519.643,532.076 550.627,532.076C550.627,532.076 637.393,519.681 501.049,488.692Z" style="fill:white;fill-rule:nonzero;"/>
            </g>
            <g transform="matrix(-0.18,0,0,0.18,262.204,-3.17495)">
                <path d="M693.071,470.338C690.942,475.263 656.754,553.622 680.779,451.506C680.779,451.506 649.791,445.311 637.396,488.694C637.396,488.694 612.607,414.317 532.035,401.928L544.429,414.317C544.429,414.317 470.057,389.528 414.279,501.089C414.279,501.089 414.279,507.283 432.874,494.889C432.874,494.889 383.291,532.078 401.885,625.039C401.885,625.039 401.885,612.644 414.279,581.656C414.279,581.656 414.279,668.422 538.235,587.856C538.235,587.856 445.268,649.833 494.852,872.944C494.852,872.944 457.663,848.156 426.674,742.794C426.674,742.794 408.085,779.978 395.691,810.967C395.691,810.967 346.107,742.794 358.502,680.817C358.502,680.817 346.107,693.217 333.713,711.806C333.713,711.806 302.724,587.856 408.085,401.928C408.085,401.928 463.863,327.556 488.652,308.961C488.652,308.961 463.863,215.994 346.107,253.183C346.107,253.183 420.479,135.428 532.035,277.972C532.035,277.972 668.003,271.79 693.072,296.466C718.14,271.792 854.108,277.974 854.108,277.974C965.664,135.43 1040.04,253.185 1040.04,253.185C922.28,215.996 897.491,308.963 897.491,308.963C922.28,327.558 978.058,401.93 978.058,401.93C1083.42,587.858 1052.43,711.808 1052.43,711.808C1040.04,693.219 1027.64,680.819 1027.64,680.819C1040.04,742.796 990.453,810.969 990.453,810.969C978.058,779.98 959.469,742.796 959.469,742.796C928.48,848.158 891.291,872.946 891.291,872.946C940.875,649.835 847.908,587.858 847.908,587.858C971.864,668.424 971.864,581.658 971.864,581.658C984.258,612.646 984.258,625.041 984.258,625.041C1002.85,532.08 953.269,494.891 953.269,494.891C971.864,507.285 971.864,501.091 971.864,501.091C916.086,389.53 841.714,414.319 841.714,414.319L854.108,401.93C773.536,414.319 748.747,488.696 748.747,488.696C736.353,445.313 705.364,451.508 705.364,451.508C729.394,553.645 695.187,475.232 693.071,470.338Z" style="fill:white;fill-rule:nonzero;"/>
            </g>
            <g transform="matrix(-0.18,0,0,0.18,262.204,-3.17495)">
                <path d="M692.969,625.024C688.322,624.702 606.056,619.194 594.013,631.238C594.013,631.238 618.802,631.238 625.002,656.027C625.002,656.027 674.579,687.016 637.396,711.81C637.396,711.81 637.396,699.41 631.202,705.61C631.202,705.61 600.213,724.199 581.618,730.399C581.618,730.399 581.618,724.199 594.013,711.81C594.013,711.81 581.618,711.81 544.429,748.993C544.429,748.993 519.641,705.61 525.835,662.227C525.835,662.227 563.024,612.643 594.013,600.249C594.013,600.249 594.013,594.054 606.407,600.249C606.407,600.249 631.202,606.449 680.779,612.643C680.779,612.643 643.591,587.854 637.396,575.46C637.396,575.46 643.591,575.46 655.991,581.654C655.991,581.654 618.802,513.482 587.813,575.46C587.813,575.46 600.213,488.693 662.185,563.066C662.185,563.066 680.779,581.654 693.174,581.654L693.174,581.655C705.568,581.452 723.958,563.068 723.958,563.068C785.93,488.695 798.33,575.462 798.33,575.462C767.341,513.484 730.153,581.656 730.153,581.656C742.553,575.462 748.747,575.462 748.747,575.462C742.553,587.856 705.364,612.645 705.364,612.645C754.941,606.451 779.736,600.251 779.736,600.251C792.13,594.056 792.13,600.251 792.13,600.251C823.119,612.645 860.308,662.229 860.308,662.229C866.503,705.612 841.714,748.995 841.714,748.995C804.525,711.812 792.13,711.812 792.13,711.812C804.525,724.201 804.525,730.401 804.525,730.401C785.93,724.201 754.941,705.612 754.941,705.612C748.747,699.412 748.747,711.812 748.747,711.812C711.564,687.018 761.141,656.029 761.141,656.029C767.341,631.24 792.13,631.24 792.13,631.24C780.087,619.196 697.821,624.704 693.174,625.025L693.174,625.038L693.085,625.032L692.969,625.04L692.969,625.024Z" style="fill:white;fill-rule:nonzero;"/>
            </g>
            <g transform="matrix(-0.18,0,0,0.18,262.204,-3.17495)">
                <path d="M693.174,742.813C697.46,743.186 768.097,749.563 792.13,767.59C792.13,767.59 792.13,810.968 773.536,835.757L773.536,792.379C773.536,792.379 748.806,767.65 693.174,773.762L693.174,773.783L693.08,773.773L692.969,773.785L692.969,773.76C637.337,767.648 612.607,792.377 612.607,792.377L612.607,835.755C594.013,810.966 594.013,767.588 594.013,767.588C618.046,749.561 688.683,743.184 692.969,742.811L692.969,742.796L693.06,742.804L693.174,742.794L693.174,742.813Z" style="fill:white;fill-rule:nonzero;"/>
            </g>
            <g transform="matrix(-0.18,0,0,0.18,262.204,-3.17495)">
                <path d="M693.062,992.647C689.474,993.034 600.213,1002.22 600.213,959.713L600.213,922.524C600.213,922.524 612.587,978.212 692.969,972.123L692.969,972.109L693.059,972.116L693.174,972.107L693.174,972.125C773.556,978.214 785.93,922.526 785.93,922.526L785.93,959.715C785.93,1002.3 696.359,993.004 693.062,992.647Z" style="fill:white;fill-rule:nonzero;"/>
            </g>
            <g transform="matrix(-0.18,0,0,0.18,262.204,-3.17495)">
                <path d="M693.042,1069.34C690.408,1069.41 648.995,1069.88 625.002,1027.88L625.002,1046.48C625.002,1046.48 594.013,1021.69 587.813,990.701C587.813,990.701 606.377,1027.82 692.969,1021.7L692.969,1021.69L693.058,1021.7L693.174,1021.69L693.174,1021.71C779.766,1027.83 798.33,990.703 798.33,990.703C792.13,1021.69 761.141,1046.48 761.141,1046.48L761.141,1027.89C736.94,1070.25 695.015,1069.4 693.042,1069.34Z" style="fill:white;fill-rule:nonzero;"/>
            </g>
        </g>
    </g>
</svg>
