<?xml version="1.0" encoding="UTF-8" standalone="no"?>
<svg width="100%" height="100%" viewBox="0 0 200 200" version="1.1"
     xmlns="http://www.w3.org/2000/svg">
  <path
    d="M58.333,150c-13.889,0 -25.694,-4.861 -35.416,-14.583c-9.723,-9.723 -14.584,-21.528 -14.584,-35.417c0,-13.889 4.861,-25.694 14.584,-35.417c9.722,-9.722 21.527,-14.583 35.416,-14.583l83.334,0c13.889,0 25.694,4.861 35.416,14.583c9.723,9.723 14.584,21.528 14.584,35.417c0,13.889 -4.861,25.694 -14.584,35.417c-9.722,9.722 -21.527,14.583 -35.416,14.583l-83.334,0Zm0,-12.5l83.334,0c10.416,0 19.27,-3.646 26.562,-10.937c7.292,-7.292 10.938,-16.146 10.938,-26.563c0,-10.417 -3.646,-19.271 -10.938,-26.562c-7.292,-7.292 -16.146,-10.938 -26.562,-10.938l-83.334,0c-10.416,0 -19.271,3.646 -26.562,10.938c-7.292,7.291 -10.938,16.145 -10.938,26.562c0,10.417 3.646,19.271 10.938,26.563c7.291,7.291 16.146,10.937 26.562,10.937Z"
    fill="#333333"/>
  <circle cx="141.875" cy="100" r="21.042" fill="#06c6a4"/>
</svg>
