<svg xmlns="http://www.w3.org/2000/svg" height="48px" viewBox="0 -960 960 960" width="48px" fill="#e3e3e3"><path d="M480-200q-67 0-121.5-37.5T278-340H160v-60h98q-2-10-3-20t-1-20h-94v-60h94q0-10 1-20t3-20H160v-60h118q20-55 65-92.5T480-730q26 0 50.5 6.5T578-706l-74 74q-8-3-16-4t-16-1q-50 0-85 35t-35 85v77q0 50 35 85t85 35q50 0 85-35t35-85v-77q0-8-1-16t-3-16l74-74q11 23 17.5 48t6.5 52h94v60h-94q1 10 1.5 20t.5 20h92v60H702q-2 10-3.5 20t-3.5 20h105v60H682q-26 65-80.5 102.5T480-200Zm0-60q42 0 77-21t55-59H348q20 38 55 59t77 21Z"/></svg>
